<svg width="88" height="31" viewBox="0 0 88 31" fill="none" xmlns="http://www.w3.org/2000/svg">
	<path
		d="M2.83643 7.07913C3.80791 6.00316 4.99025 5.33528 6.39608 5.14477C8.45317 4.86601 10.2899 5.38434 11.8051 6.87447C12.7892 7.84234 13.5842 8.94749 14.0594 10.2696C14.1615 10.5536 14.2446 10.5658 14.4193 10.3221C14.9337 9.60426 15.236 8.80368 15.3361 7.91795C15.3977 7.37222 15.3853 6.83459 15.2607 6.30249C14.9514 4.98057 14.0815 4.16184 12.9012 3.6402C12.1645 3.31458 11.39 3.25077 10.6009 3.38464C10.4033 3.41816 10.3218 3.33736 10.3211 3.15205C10.3186 2.53406 10.3218 1.91605 10.3194 1.29806C10.3189 1.16264 10.3792 1.08121 10.5067 1.06783C12.5932 0.84894 14.575 1.12121 16.2925 2.45499C17.4839 3.38013 18.1833 4.61897 18.3971 6.13817C18.6721 8.09131 18.2768 9.88226 17.136 11.4815C16.2104 12.7791 14.9578 13.5743 13.4029 13.8674C13.3814 13.8715 13.3564 13.8666 13.338 13.8759C13.2463 13.922 13.0994 13.876 13.0702 14.0251C13.0446 14.1561 13.143 14.2266 13.2258 14.2999C13.9845 14.9716 14.8503 15.4304 15.8581 15.5212C17.1334 15.636 18.2645 15.2548 19.1785 14.322C20.1658 13.3143 20.6082 12.0808 20.5701 10.6638C20.5636 10.4257 20.5629 10.1874 20.5564 9.94925C20.5532 9.83084 20.599 9.77912 20.721 9.76782C21.4084 9.70421 22.0949 9.72215 22.7818 9.77205C22.8879 9.77976 22.9131 9.84074 22.9243 9.93149C22.9781 10.367 23.0126 10.804 22.9957 11.2426C22.9603 12.1597 22.8235 13.0595 22.5164 13.9267C21.8197 15.8934 20.5993 17.3886 18.7014 18.2577C17.6752 18.7277 16.5978 18.9015 15.4714 18.7914C13.0346 18.5531 11.3163 17.2572 10.1754 15.1046C9.91376 14.6109 9.74955 14.0789 9.65714 13.525C9.64863 13.474 9.62912 13.425 9.61883 13.3742C9.58442 13.2043 9.49489 13.1915 9.36604 13.2783C9.2236 13.3742 9.11387 13.5057 9.00234 13.633C8.24443 14.4979 7.81498 15.5036 7.8034 16.6685C7.79233 17.7816 8.23071 18.7083 9.03229 19.451C9.89991 20.2549 10.9298 20.6353 12.1061 20.5786C12.3827 20.5652 12.659 20.5266 12.9331 20.4842C13.1152 20.456 13.2026 20.5234 13.2033 20.7038C13.2057 21.359 13.2049 22.0142 13.2044 22.6694C13.2043 22.8001 13.1433 22.8741 13.0104 22.8933C10.2584 23.2907 7.88158 22.6068 6.08009 20.3525C5.32685 19.41 4.90621 18.3119 4.77496 17.0934C4.47528 14.3113 6.03792 11.7766 8.42377 10.5796C9.00384 10.2886 9.61115 10.0778 10.2461 9.94981C10.3456 9.92975 10.4466 9.90979 10.5249 9.8363C10.5458 9.7349 10.4758 9.68137 10.4203 9.6268C8.97429 8.20498 7.0764 7.87674 5.38163 8.69283C4.11455 9.30297 3.44952 10.395 3.31135 11.817C3.27869 12.1532 3.31523 12.4862 3.32068 12.8204C3.32404 13.0266 3.26502 13.1176 3.04662 13.1132C2.48288 13.1018 1.91877 13.1101 1.35482 13.1081C1.09189 13.1071 1.07227 13.0706 1.04417 12.7954C0.92373 11.616 1.04668 10.4664 1.44872 9.3526C1.75499 8.50413 2.2157 7.74929 2.83643 7.07913Z"
		fill="#670A0A" />
	<path
		d="M55.849 22.2484C53.6021 23.8719 48.4377 23.6038 46.1843 20.103C45.2794 18.6972 44.8161 17.184 44.7876 15.4936C44.757 13.6782 44.9967 11.949 45.9217 10.3692C47.5678 7.55808 50.5591 6.32217 53.8399 7.03421C54.7194 7.22507 55.5473 7.50967 56.2899 8.02126C56.6173 8.24679 56.8977 8.35858 56.9755 7.80421C57.03 7.41579 57.325 7.29485 57.6463 7.28905C58.761 7.2689 59.8764 7.26515 60.9911 7.27968C61.4199 7.28526 61.6419 7.49707 61.6526 7.98108C61.7509 12.4218 61.74 16.8618 61.6501 21.3025C61.6275 22.4192 61.5948 23.5293 61.3152 24.6142C60.5562 27.5583 58.5269 29.236 55.7089 29.988C52.2885 30.9009 49.0465 30.3622 46.032 28.4897C45.6641 28.2611 45.5043 28.048 45.7627 27.5968C46.3141 26.634 46.7229 25.5924 47.3404 24.6036C48.2114 24.9441 48.9788 25.439 49.8419 25.7138C51.2832 26.1727 52.7346 26.3687 54.2169 25.9433C56.1318 25.3936 57.4205 23.1885 56.8592 21.3758C56.5262 21.665 56.2058 21.9431 55.849 22.2484ZM49.6244 13.4835C49.4566 14.0671 49.4489 14.6659 49.4866 15.2627C49.5829 16.787 50.1713 18.0444 51.6329 18.6807C53.0348 19.2911 54.4452 19.2057 55.6506 18.2126C56.9287 17.1596 57.2244 15.7146 56.9783 14.131C56.7079 12.3905 55.4076 11.0441 53.8721 10.9057C51.6258 10.7031 50.3541 11.4522 49.6244 13.4835Z"
		fill="#670A0A" />
	<path
		d="M71.7239 10.4924C71.7242 9.70731 71.7194 8.98418 71.7263 8.26116C71.7338 7.4701 71.8505 7.35171 72.6154 7.34868C73.5244 7.34507 74.4335 7.34569 75.3425 7.34913C76.182 7.35231 76.2337 7.4069 76.2731 8.2696C76.2786 8.38988 76.2506 8.5202 76.3742 8.63357C76.6536 8.66432 76.7855 8.4125 76.9543 8.26062C79.593 5.88605 84.4729 6.70549 86.1533 9.48259C86.7452 10.4607 87.048 11.5235 87.0544 12.6568C87.0709 15.5904 87.0609 18.5241 87.0617 21.4578C87.0618 21.685 87.0591 21.9124 87.0665 22.1395C87.1105 23.4726 87.0715 23.5163 85.7094 23.5253C84.9244 23.5304 84.1392 23.5318 83.3543 23.5208C82.5942 23.5101 82.4087 23.3259 82.4059 22.5555C82.3956 19.7253 82.4009 16.895 82.3861 14.0647C82.3799 12.8773 82.0341 11.8521 80.8467 11.3304C79.6 10.7825 78.4106 10.9627 77.3442 11.767C76.5208 12.388 76.4118 13.3491 76.4033 14.2858C76.3783 17.0127 76.3949 19.7399 76.3926 22.4669C76.3918 23.3812 76.2225 23.548 75.3055 23.5496C74.4998 23.5511 73.6941 23.5513 72.8884 23.5461C71.9101 23.5399 71.727 23.3629 71.7261 22.3924C71.7227 18.4464 71.7243 14.5004 71.7239 10.4924Z"
		fill="#670A0A" />
	<path
		d="M26.1388 7.51941C26.5772 7.23141 27.0209 7.36727 27.4449 7.35525C28.2499 7.33246 29.057 7.37421 29.8611 7.34041C30.4843 7.31422 30.7288 7.60823 30.7345 8.18339C30.7375 8.48305 30.735 8.78277 30.735 9.09555C31.076 9.05219 31.1597 8.84069 31.2809 8.68746C32.3458 7.34147 33.8227 6.99395 35.4242 7.02459C36.1969 7.03936 36.3313 7.24856 36.3346 8.03056C36.338 8.85678 36.3363 9.68302 36.3354 10.5092C36.3343 11.4985 36.3046 11.5276 35.3342 11.5276C34.4299 11.5276 33.5255 11.4486 32.6955 11.9762C31.4925 12.7409 30.7734 13.7966 30.7483 15.2241C30.7072 17.5575 30.7356 19.8921 30.731 22.2261C30.7291 23.2281 30.5598 23.4513 29.5767 23.5024C28.6293 23.5516 27.6773 23.5124 26.7273 23.5137C26.2415 23.5144 26.0137 23.2563 25.9935 22.7887C25.9855 22.6031 25.9787 22.4172 25.9786 22.2314C25.9774 17.6665 25.9767 13.1016 25.9778 8.53677C25.9779 8.20769 25.9504 7.87316 26.1388 7.51941Z"
		fill="#670A0A" />
	<path
		d="M38.1583 16.8176C38.1565 13.9276 38.1518 11.0996 38.1543 8.27158C38.1551 7.33922 38.2417 7.25756 39.191 7.2501C40.0579 7.24329 40.925 7.24319 41.7919 7.24862C42.7219 7.25443 42.8708 7.39751 42.8714 8.33039C42.8739 12.7066 42.8703 17.0827 42.8689 21.4589C42.8688 21.8923 42.8757 22.3259 42.8668 22.7591C42.8573 23.2234 42.6298 23.5024 42.1472 23.5064C41.0534 23.5153 39.9595 23.5154 38.8657 23.5133C38.4533 23.5125 38.2066 23.331 38.2027 22.8832C38.1936 21.8315 38.1708 20.7799 38.1625 19.7282C38.1549 18.7787 38.1592 17.8291 38.1583 16.8176Z"
		fill="#670A0A" />
	<path
		d="M69.1993 7.92835C69.2014 12.5482 69.202 17.1098 69.2027 21.6714C69.2027 21.8778 69.1982 22.0844 69.2052 22.2906C69.2447 23.4521 69.1721 23.5417 67.9792 23.5337C67.0729 23.5275 66.1653 23.5921 65.2594 23.4712C64.7585 23.4044 64.5359 23.1557 64.5364 22.6554C64.5411 17.8048 64.5416 12.9542 64.539 8.1036C64.5387 7.64415 64.698 7.35692 65.1997 7.31627C66.3529 7.22285 67.5038 7.1982 68.6562 7.33335C68.995 7.37307 69.198 7.50855 69.1993 7.92835Z"
		fill="#670A0A" />
	<path
		d="M39.2884 0.544813C40.9362 -0.0819046 42.5622 0.574722 43.131 2.05913C43.7106 3.57178 42.9941 5.16572 41.4677 5.75936C40.1231 6.28227 38.603 5.69679 37.9397 4.40049C37.276 3.10361 37.6973 1.54794 38.9269 0.757631C39.031 0.690676 39.1384 0.628793 39.2884 0.544813Z"
		fill="#670A0A" />
	<path
		d="M68.9353 4.92953C67.913 5.96873 66.6909 6.16967 65.475 5.5282C64.397 4.95949 63.8185 3.72517 64.055 2.4984C64.294 1.25843 65.3894 0.265596 66.7098 0.207876C67.7671 0.161655 68.6382 0.612777 69.2126 1.52274C69.7962 2.44736 69.8538 3.41484 69.3163 4.38841C69.2175 4.56746 69.0827 4.72666 68.9353 4.92953Z"
		fill="#670A0A" />
	<path
		d="M21.7357 19.1837C19.6699 21.883 16.9848 23.5333 13.6813 23.9089C7.04979 24.663 1.40732 20.6752 0.222034 14.17C-0.670438 9.27186 1.1257 4.39665 5.64449 1.74056C10.4303 -1.07246 17.0519 -0.568681 21.0679 3.93219C22.9311 6.02026 23.8507 8.53979 23.9839 11.3549C24.119 14.2122 23.4082 16.8103 21.7357 19.1837ZM10.6815 19.0965C12.4714 19.4169 14.1824 19.1657 15.7037 18.1669C18.3046 16.4593 19.2817 13.9494 18.8531 10.927C18.5641 8.88904 17.5772 7.15192 15.843 5.9932C13.5423 4.45602 11.0941 4.47824 8.68342 5.70985C6.27577 6.93992 5.26466 9.11813 5.13523 11.7046C4.94264 15.5532 7.39858 18.4241 10.6815 19.0965Z"
		fill="#670A0A" />
</svg>