<svg width="70" height="35" viewBox="0 0 70 35" fill="none" xmlns="http://www.w3.org/2000/svg">
<path d="M31.192 14.328C32.112 14.328 32.924 14.532 33.628 14.94C34.332 15.348 34.876 15.912 35.26 16.632C35.644 17.352 35.836 18.168 35.836 19.08C35.836 20.016 35.544 20.88 34.96 21.672C34.376 22.464 33.652 23.092 32.788 23.556C31.932 24.012 31.116 24.24 30.34 24.24C29.42 24.24 28.608 24.04 27.904 23.64C27.208 23.232 26.664 22.668 26.272 21.948C25.888 21.228 25.696 20.412 25.696 19.5C25.696 18.564 25.984 17.7 26.56 16.908C27.144 16.108 27.868 15.48 28.732 15.024C29.596 14.56 30.416 14.328 31.192 14.328ZM30.496 15.708C30.048 15.708 29.636 15.848 29.26 16.128C28.892 16.408 28.6 16.792 28.384 17.28C28.168 17.768 28.06 18.316 28.06 18.924C28.06 19.644 28.168 20.304 28.384 20.904C28.608 21.496 28.94 21.972 29.38 22.332C29.828 22.684 30.38 22.86 31.036 22.86C31.476 22.86 31.88 22.72 32.248 22.44C32.624 22.16 32.92 21.776 33.136 21.288C33.352 20.8 33.46 20.252 33.46 19.644C33.46 18.916 33.352 18.256 33.136 17.664C32.92 17.072 32.588 16.6 32.14 16.248C31.7 15.888 31.152 15.708 30.496 15.708ZM41.0075 19.116C40.7195 19.116 40.4315 19.244 40.1435 19.5V22.74L41.9675 23.22L41.5835 24H37.0355V23.328L38.1035 22.428V19.704L37.0355 19.032V18.36L39.5315 17.304L39.9875 18.636L41.0795 17.508C41.2475 17.444 41.4435 17.412 41.6675 17.412C42.0835 17.412 42.4395 17.508 42.7355 17.7C43.0395 17.892 43.2515 18.156 43.3715 18.492L42.2195 19.932H41.4635C41.4555 19.644 41.4155 19.44 41.3435 19.32C41.2715 19.192 41.1595 19.128 41.0075 19.128V19.116ZM47.6596 24H43.8676V23.328L44.9356 22.428V19.644L43.8676 18.936V18.264L46.2196 17.304H46.9756V22.86L48.0556 23.22L47.6596 24ZM45.9436 13.692C46.2876 13.692 46.5676 13.804 46.7836 14.028C47.0076 14.244 47.1196 14.516 47.1196 14.844C47.1196 15.076 47.0396 15.292 46.8796 15.492C46.7196 15.692 46.5196 15.852 46.2796 15.972C46.0396 16.092 45.8076 16.152 45.5836 16.152C45.2476 16.152 44.9676 16.044 44.7436 15.828C44.5276 15.604 44.4196 15.328 44.4196 15C44.4196 14.768 44.4996 14.552 44.6596 14.352C44.8196 14.152 45.0156 13.992 45.2476 13.872C45.4876 13.752 45.7196 13.692 45.9436 13.692ZM54.646 18.696C54.782 18.952 54.85 19.224 54.85 19.512C54.85 20 54.642 20.472 54.226 20.928C53.818 21.376 53.31 21.716 52.702 21.948C52.494 22.188 52.39 22.428 52.39 22.668C52.39 22.78 52.478 22.892 52.654 23.004C52.83 23.108 53.106 23.244 53.482 23.412C54.034 23.652 54.458 23.872 54.754 24.072C55.05 24.28 55.198 24.52 55.198 24.792C55.198 25.048 55.038 25.364 54.718 25.74C54.398 26.124 53.998 26.456 53.518 26.736C53.046 27.024 52.586 27.168 52.138 27.168C51.65 27.168 51.07 27.092 50.398 26.94C49.726 26.788 49.166 26.636 48.718 26.484V24.336H49.474C49.866 24.864 50.262 25.264 50.662 25.536C51.07 25.816 51.53 25.956 52.042 25.956C52.306 25.956 52.526 25.896 52.702 25.776C52.886 25.664 52.978 25.544 52.978 25.416C52.978 25.232 52.87 25.068 52.654 24.924C52.446 24.788 52.122 24.62 51.682 24.42C51.21 24.212 50.854 24.028 50.614 23.868C50.374 23.7 50.254 23.508 50.254 23.292C50.254 23.1 50.398 22.904 50.686 22.704C50.982 22.504 51.334 22.328 51.742 22.176C51.582 22.192 51.462 22.2 51.382 22.2C50.894 22.2 50.446 22.104 50.038 21.912C49.638 21.72 49.322 21.464 49.09 21.144C48.858 20.816 48.742 20.468 48.742 20.1C48.742 19.644 48.91 19.208 49.246 18.792C49.582 18.376 50.018 18.044 50.554 17.796C51.09 17.54 51.638 17.412 52.198 17.412C52.838 17.412 53.402 17.572 53.89 17.892H55.87L55.882 18.696H54.646ZM52.09 20.832C52.346 20.832 52.542 20.772 52.678 20.652C52.822 20.524 52.894 20.336 52.894 20.088C52.894 19.696 52.766 19.388 52.51 19.164C52.262 18.932 51.93 18.816 51.514 18.816C50.986 18.816 50.722 19.052 50.722 19.524C50.722 19.908 50.846 20.224 51.094 20.472C51.35 20.712 51.682 20.832 52.09 20.832ZM60.2338 24H56.4418V23.328L57.5098 22.428V19.644L56.4418 18.936V18.264L58.7938 17.304H59.5498V22.86L60.6298 23.22L60.2338 24ZM58.5178 13.692C58.8618 13.692 59.1418 13.804 59.3578 14.028C59.5818 14.244 59.6938 14.516 59.6938 14.844C59.6938 15.076 59.6138 15.292 59.4538 15.492C59.2938 15.692 59.0938 15.852 58.8538 15.972C58.6138 16.092 58.3818 16.152 58.1578 16.152C57.8218 16.152 57.5418 16.044 57.3178 15.828C57.1018 15.604 56.9938 15.328 56.9938 15C56.9938 14.768 57.0738 14.552 57.2338 14.352C57.3938 14.152 57.5898 13.992 57.8218 13.872C58.0618 13.752 58.2938 13.692 58.5178 13.692ZM69.2122 24H66.4882V20.16C66.4882 19.784 66.4282 19.52 66.3082 19.368C66.1962 19.208 65.9962 19.128 65.7082 19.128C65.2842 19.128 64.8642 19.264 64.4482 19.536V22.86L65.5282 23.22L65.1322 24H61.3402V23.328L62.4082 22.428V19.704L61.3402 19.032V18.36L63.8362 17.304L64.3042 18.696L65.7922 17.508C66.0082 17.444 66.2522 17.412 66.5242 17.412C67.1322 17.412 67.6162 17.58 67.9762 17.916C68.3442 18.244 68.5282 18.692 68.5282 19.26V22.86L69.6082 23.22L69.2122 24Z" fill="#000080"/>
<g opacity="0.8" filter="url(#filter0_f_81_13)">
<path d="M7.33333 21.5V13.6875L5.83333 14.8333L4.83333 13.5L7.33333 11.5833V8.99999H9V10.3125L14 6.49999L23.1667 13.5L22.1667 14.8125L20.6667 13.6875V21.5H7.33333ZM9 19.8333H13.1667V16.5H14.8333V19.8333H19V12.4167L14 8.60416L9 12.4167V19.8333ZM7.33333 8.16666C7.33333 7.47222 7.57638 6.88194 8.0625 6.39583C8.54861 5.90972 9.13888 5.66666 9.83333 5.66666C10.0694 5.66666 10.2674 5.5868 10.4271 5.42708C10.5868 5.26736 10.6667 5.06944 10.6667 4.83333H12.3333C12.3333 5.52777 12.0903 6.11805 11.6042 6.60416C11.1181 7.09027 10.5278 7.33333 9.83333 7.33333C9.59722 7.33333 9.3993 7.41319 9.23958 7.57291C9.07986 7.73263 9 7.93055 9 8.16666H7.33333Z" fill="#C42D11"/>
</g>
<path d="M7.33333 24.5V16.6875L5.83333 17.8333L4.83333 16.5L7.33333 14.5833V12H9V13.3125L14 9.49999L23.1667 16.5L22.1667 17.8125L20.6667 16.6875V24.5H7.33333ZM9 22.8333H13.1667V19.5H14.8333V22.8333H19V15.4167L14 11.6042L9 15.4167V22.8333ZM7.33333 11.1667C7.33333 10.4722 7.57638 9.88194 8.0625 9.39583C8.54861 8.90972 9.13888 8.66666 9.83333 8.66666C10.0694 8.66666 10.2674 8.5868 10.4271 8.42708C10.5868 8.26736 10.6667 8.06944 10.6667 7.83333H12.3333C12.3333 8.52777 12.0903 9.11805 11.6042 9.60416C11.1181 10.0903 10.5278 10.3333 9.83333 10.3333C9.59722 10.3333 9.3993 10.4132 9.23958 10.5729C9.07986 10.7326 9 10.9306 9 11.1667H7.33333Z" fill="#C42D11"/>
<defs>
<filter id="filter0_f_81_13" x="0" y="0" width="28" height="28" filterUnits="userSpaceOnUse" color-interpolation-filters="sRGB">
<feFlood flood-opacity="0" result="BackgroundImageFix"/>
<feBlend mode="normal" in="SourceGraphic" in2="BackgroundImageFix" result="shape"/>
<feGaussianBlur stdDeviation="2" result="effect1_foregroundBlur_81_13"/>
</filter>
</defs>
</svg>
