<svg width="350" height="200" viewBox="0 0 350 200" fill="none" xmlns="http://www.w3.org/2000/svg">
<rect width="350" height="200" fill="white"/>
<g clip-path="url(#clip0_102_77)">
<path d="M196.875 100.335L194.665 98.125L153.125 139.665L155.335 141.875L158.46 138.75H190.625C191.453 138.749 192.248 138.419 192.833 137.833C193.419 137.248 193.749 136.453 193.75 135.625V103.46L196.875 100.335ZM190.625 135.625H161.585L173.761 123.448L177.478 127.165C178.064 127.751 178.859 128.08 179.688 128.08C180.516 128.08 181.311 127.751 181.897 127.165L184.375 124.688L190.625 130.933V135.625ZM190.625 126.513L186.585 122.472C185.999 121.886 185.204 121.557 184.375 121.557C183.546 121.557 182.751 121.886 182.165 122.472L179.688 124.95L175.973 121.236L190.625 106.585V126.513Z" fill="black"/>
<path d="M159.375 129.375V124.688L167.188 116.88L169.333 119.026L171.546 116.814L169.397 114.665C168.811 114.079 168.016 113.75 167.188 113.75C166.359 113.75 165.564 114.079 164.978 114.665L159.375 120.268V104.375H184.375V101.25H159.375C158.546 101.251 157.752 101.58 157.166 102.166C156.58 102.752 156.251 103.546 156.25 104.375V129.375H159.375Z" fill="black"/>
</g>
<path d="M77.64 78.2L71.24 70.02C71.0667 69.7933 70.8867 69.5533 70.7 69.3C70.5133 69.0467 70.3267 68.7867 70.14 68.52H70.12L70.16 74.72C70.16 75.08 70.1533 75.4267 70.14 75.76C70.1267 76.0933 70.1067 76.3467 70.08 76.52C70.2933 76.4933 70.56 76.48 70.88 76.48C71.2133 76.4667 71.4467 76.46 71.58 76.46V78H67.02V76.68C67.3267 76.6667 67.58 76.6267 67.78 76.56C67.9933 76.4933 68.1533 76.34 68.26 76.1C68.38 75.86 68.44 75.4733 68.44 74.94L68.4 67.28C68.4 66.92 68.4067 66.5733 68.42 66.24C68.4333 65.9067 68.4533 65.6533 68.48 65.48C68.2667 65.4933 67.9933 65.5067 67.66 65.52C67.34 65.52 67.1067 65.5267 66.96 65.54V64H70.1L76.22 71.72C76.5533 72.1467 76.8267 72.5133 77.04 72.82C77.2667 73.1267 77.46 73.3933 77.62 73.62H77.64V67.28C77.64 66.92 77.6467 66.5733 77.66 66.24C77.6733 65.9067 77.6867 65.6533 77.7 65.48C77.4867 65.4933 77.22 65.5067 76.9 65.52C76.58 65.52 76.3467 65.5267 76.2 65.54V64H80.76V65.32C80.4667 65.3333 80.2133 65.3733 80 65.44C79.7867 65.5067 79.62 65.66 79.5 65.9C79.3933 66.1267 79.34 66.5133 79.34 67.06V78.2H77.64ZM88.9334 78.32C87.6668 78.32 86.5868 78.1067 85.6934 77.68C84.8134 77.2533 84.1001 76.6867 83.5534 75.98C83.0068 75.26 82.6068 74.4667 82.3534 73.6C82.1001 72.7333 81.9734 71.8667 81.9734 71C81.9734 70.16 82.1134 69.3133 82.3934 68.46C82.6868 67.5933 83.1201 66.8 83.6934 66.08C84.2801 65.36 85.0134 64.78 85.8934 64.34C86.7734 63.9 87.8068 63.68 88.9934 63.68C90.2068 63.68 91.2534 63.9 92.1334 64.34C93.0134 64.78 93.7334 65.3667 94.2934 66.1C94.8534 66.82 95.2668 67.6067 95.5334 68.46C95.8134 69.3133 95.9534 70.16 95.9534 71C95.9534 71.8267 95.8068 72.6667 95.5134 73.52C95.2334 74.3733 94.8001 75.1667 94.2134 75.9C93.6401 76.62 92.9134 77.2067 92.0334 77.66C91.1534 78.1 90.1201 78.32 88.9334 78.32ZM89.1534 76.86C89.8468 76.86 90.4268 76.6933 90.8934 76.36C91.3601 76.0133 91.7334 75.5667 92.0134 75.02C92.2934 74.4733 92.4934 73.88 92.6134 73.24C92.7334 72.5867 92.7934 71.9533 92.7934 71.34C92.7934 70.42 92.7134 69.58 92.5534 68.82C92.3934 68.06 92.1468 67.4067 91.8134 66.86C91.4801 66.3 91.0534 65.8733 90.5334 65.58C90.0268 65.2733 89.4268 65.1267 88.7334 65.14C88.0534 65.1533 87.4801 65.34 87.0134 65.7C86.5468 66.0467 86.1734 66.5 85.8934 67.06C85.6134 67.6067 85.4134 68.2067 85.2934 68.86C85.1734 69.5133 85.1134 70.1467 85.1134 70.76C85.1134 71.3867 85.1801 72.0533 85.3134 72.76C85.4601 73.4667 85.6868 74.1333 85.9934 74.76C86.3001 75.3867 86.7134 75.8933 87.2334 76.28C87.7534 76.6667 88.3934 76.86 89.1534 76.86ZM108.638 65.32C108.345 65.3333 108.092 65.3733 107.878 65.44C107.665 65.5067 107.498 65.66 107.378 65.9C107.272 66.1267 107.218 66.5133 107.218 67.06V74.72C107.218 75.08 107.212 75.4267 107.198 75.76C107.185 76.0933 107.165 76.3467 107.138 76.52C107.352 76.4933 107.618 76.48 107.938 76.48C108.272 76.4667 108.505 76.46 108.638 76.46V78H102.898V76.68C103.205 76.6667 103.458 76.6267 103.658 76.56C103.872 76.4933 104.032 76.34 104.138 76.1C104.258 75.86 104.318 75.4733 104.318 74.94V67.28C104.318 66.92 104.325 66.5733 104.338 66.24C104.365 65.9067 104.385 65.6533 104.398 65.48C104.185 65.4933 103.918 65.5067 103.598 65.52C103.278 65.52 103.045 65.5267 102.898 65.54V64H108.638V65.32ZM117.793 78.2C117.339 77.0933 116.886 75.9933 116.433 74.9C115.993 73.8067 115.546 72.7133 115.093 71.62C114.986 71.3667 114.846 71.0133 114.673 70.56C114.513 70.0933 114.339 69.56 114.153 68.96C113.979 68.36 113.819 67.74 113.673 67.1C113.699 67.8467 113.719 68.5533 113.733 69.22C113.746 69.8733 113.746 70.5 113.733 71.1C113.733 71.3933 113.733 71.6933 113.733 72C113.733 72.3067 113.726 72.6133 113.713 72.92C113.713 73.2133 113.713 73.5133 113.713 73.82C113.713 74.1133 113.713 74.4133 113.713 74.72C113.713 75.08 113.699 75.4267 113.673 75.76C113.659 76.0933 113.639 76.3467 113.613 76.52C113.839 76.4933 114.113 76.48 114.433 76.48C114.766 76.4667 114.999 76.46 115.133 76.46V78H110.573V76.68C110.879 76.6667 111.133 76.6267 111.333 76.56C111.546 76.4933 111.706 76.34 111.813 76.1C111.933 75.86 111.993 75.4733 111.993 74.94L112.113 67.28C112.126 66.92 112.139 66.5733 112.153 66.24C112.166 65.9067 112.179 65.6533 112.193 65.48C111.979 65.4933 111.713 65.5067 111.393 65.52C111.073 65.52 110.839 65.5267 110.693 65.54V64H115.113L118.133 71.74C118.253 72.0467 118.386 72.4067 118.533 72.82C118.679 73.22 118.819 73.6133 118.953 74C119.086 74.3733 119.186 74.6733 119.253 74.9H119.273C119.446 74.4333 119.606 73.98 119.753 73.54C119.899 73.1 120.053 72.6733 120.213 72.26C120.733 70.8733 121.246 69.4933 121.753 68.12C122.273 66.7467 122.793 65.3733 123.313 64H127.933V65.32C127.639 65.3333 127.379 65.3733 127.153 65.44C126.926 65.5067 126.753 65.66 126.633 65.9C126.526 66.1267 126.479 66.5133 126.493 67.06L126.793 74.72C126.819 75.08 126.819 75.4267 126.793 75.76C126.766 76.0933 126.739 76.3467 126.713 76.52C126.939 76.4933 127.213 76.48 127.533 76.48C127.866 76.4667 128.099 76.46 128.233 76.46V78H122.673V76.68C122.979 76.6667 123.239 76.6267 123.453 76.56C123.679 76.4933 123.846 76.34 123.953 76.1C124.073 75.86 124.119 75.4733 124.093 74.94L123.933 70.7C123.933 70.54 123.919 70.2667 123.893 69.88C123.866 69.48 123.839 69.0467 123.813 68.58C123.799 68.1 123.786 67.6533 123.773 67.24C123.733 67.3333 123.693 67.4267 123.653 67.52C123.613 67.6 123.579 67.6867 123.553 67.78L119.653 78.2H117.793ZM129.146 78V76.62C129.52 76.62 129.82 76.5133 130.046 76.3C130.273 76.0867 130.46 75.8067 130.606 75.46C130.766 75.1133 130.92 74.74 131.066 74.34L134.966 63.64H136.366L140.626 74.54C140.706 74.74 140.813 75.0467 140.946 75.46C141.08 75.86 141.16 76.2133 141.186 76.52C141.413 76.4933 141.626 76.48 141.826 76.48C142.04 76.4667 142.213 76.46 142.346 76.46V78H136.966V76.68C137.34 76.68 137.593 76.6067 137.726 76.46C137.873 76.3 137.94 76.0867 137.926 75.82C137.913 75.5533 137.84 75.2533 137.706 74.92L137.306 73.82L132.966 73.9L132.646 74.84C132.58 75.0133 132.48 75.2733 132.346 75.62C132.226 75.9533 132.113 76.2333 132.006 76.46C132.22 76.4333 132.473 76.42 132.766 76.42C133.073 76.4067 133.293 76.4 133.426 76.4V78H129.146ZM133.466 72.4H136.806L135.886 69.9C135.713 69.42 135.56 68.94 135.426 68.46C135.293 67.9667 135.193 67.5333 135.126 67.16H135.106C135.053 67.3867 134.973 67.7267 134.866 68.18C134.76 68.6333 134.593 69.1733 134.366 69.8L133.466 72.4ZM149.555 78.32C148.115 78.32 146.888 78.0067 145.875 77.38C144.862 76.74 144.088 75.88 143.555 74.8C143.022 73.72 142.755 72.52 142.755 71.2C142.755 70.2933 142.895 69.3933 143.175 68.5C143.468 67.6067 143.902 66.8 144.475 66.08C145.048 65.3467 145.768 64.7667 146.635 64.34C147.515 63.9 148.535 63.68 149.695 63.68C150.055 63.68 150.462 63.72 150.915 63.8C151.368 63.8667 151.822 63.9733 152.275 64.12C152.742 64.2667 153.155 64.4467 153.515 64.66L153.435 63.82H154.975V68.48H153.675C153.555 67.7333 153.322 67.1133 152.975 66.62C152.628 66.1267 152.195 65.7533 151.675 65.5C151.155 65.2467 150.582 65.12 149.955 65.12C149.262 65.12 148.655 65.28 148.135 65.6C147.628 65.92 147.208 66.3467 146.875 66.88C146.542 67.4133 146.288 68.02 146.115 68.7C145.955 69.38 145.875 70.08 145.875 70.8C145.875 71.9467 146.035 72.9667 146.355 73.86C146.675 74.7533 147.142 75.46 147.755 75.98C148.382 76.4867 149.148 76.74 150.055 76.74C150.308 76.74 150.608 76.72 150.955 76.68C151.302 76.64 151.648 76.58 151.995 76.5C152.342 76.42 152.635 76.32 152.875 76.2V74.34C152.875 73.98 152.882 73.6333 152.895 73.3C152.922 72.9667 152.942 72.7133 152.955 72.54C152.742 72.5533 152.475 72.5667 152.155 72.58C151.835 72.58 151.602 72.5867 151.455 72.6V71.06H156.775V72.38C156.548 72.3933 156.348 72.42 156.175 72.46C156.015 72.5 155.875 72.58 155.755 72.7C155.648 72.8067 155.568 72.9733 155.515 73.2C155.462 73.4267 155.435 73.7333 155.435 74.12V77.32H154.955C154.568 77.32 154.182 77.3733 153.795 77.48C153.408 77.5867 152.995 77.7067 152.555 77.84C152.142 77.96 151.688 78.0667 151.195 78.16C150.702 78.2667 150.155 78.32 149.555 78.32ZM164.913 73.18C164.913 72.62 164.827 72.2133 164.653 71.96C164.48 71.7067 164.24 71.5533 163.933 71.5C163.64 71.4333 163.313 71.4067 162.953 71.42L162.433 71.44V74.72C162.433 75.08 162.427 75.42 162.413 75.74C162.4 76.06 162.38 76.3067 162.353 76.48H165.033C165.433 76.48 165.82 76.3933 166.193 76.22C166.567 76.0333 166.873 75.7333 167.113 75.32C167.353 74.8933 167.473 74.32 167.473 73.6H168.773L168.673 78H158.113V76.68C158.42 76.6667 158.673 76.6267 158.873 76.56C159.087 76.4933 159.247 76.34 159.353 76.1C159.473 75.86 159.533 75.4733 159.533 74.94V67.28C159.533 66.92 159.54 66.5733 159.553 66.24C159.58 65.9067 159.6 65.6533 159.613 65.48C159.4 65.4933 159.133 65.5067 158.813 65.52C158.493 65.52 158.26 65.5267 158.113 65.54V64H168.113L168.233 67.88H166.913C166.913 67.1467 166.787 66.5933 166.533 66.22C166.28 65.8467 165.967 65.6 165.593 65.48C165.22 65.3467 164.853 65.2867 164.493 65.3L163.773 65.32C163.493 65.32 163.253 65.36 163.053 65.44C162.853 65.5067 162.7 65.6667 162.593 65.92C162.487 66.16 162.433 66.54 162.433 67.06V70.06H164.773L164.693 68.32H166.233V73.18H164.913ZM174.928 78V76.62C175.301 76.62 175.601 76.5133 175.828 76.3C176.054 76.0867 176.241 75.8067 176.388 75.46C176.548 75.1133 176.701 74.74 176.848 74.34L180.748 63.64H182.148L186.408 74.54C186.488 74.74 186.594 75.0467 186.728 75.46C186.861 75.86 186.941 76.2133 186.968 76.52C187.194 76.4933 187.408 76.48 187.608 76.48C187.821 76.4667 187.994 76.46 188.128 76.46V78H182.748V76.68C183.121 76.68 183.374 76.6067 183.508 76.46C183.654 76.3 183.721 76.0867 183.708 75.82C183.694 75.5533 183.621 75.2533 183.488 74.92L183.088 73.82L178.748 73.9L178.428 74.84C178.361 75.0133 178.261 75.2733 178.128 75.62C178.008 75.9533 177.894 76.2333 177.788 76.46C178.001 76.4333 178.254 76.42 178.548 76.42C178.854 76.4067 179.074 76.4 179.208 76.4V78H174.928ZM179.248 72.4H182.588L181.668 69.9C181.494 69.42 181.341 68.94 181.208 68.46C181.074 67.9667 180.974 67.5333 180.908 67.16H180.888C180.834 67.3867 180.754 67.7267 180.648 68.18C180.541 68.6333 180.374 69.1733 180.148 69.8L179.248 72.4ZM193.045 78.12L188.445 67.38C188.311 67.0467 188.185 66.7 188.065 66.34C187.945 65.98 187.885 65.6933 187.885 65.48C187.671 65.4933 187.471 65.5067 187.285 65.52C187.111 65.52 186.951 65.5267 186.805 65.54V64H192.705V65.32C192.211 65.3067 191.831 65.4133 191.565 65.64C191.311 65.8667 191.305 66.2733 191.545 66.86C191.851 67.6067 192.158 68.36 192.465 69.12C192.771 69.88 193.078 70.6333 193.385 71.38C193.611 71.94 193.805 72.4333 193.965 72.86C194.125 73.2733 194.311 73.7333 194.525 74.24H194.545C194.691 73.84 194.845 73.3933 195.005 72.9C195.178 72.4067 195.345 71.9333 195.505 71.48C195.678 71.0133 195.845 70.5467 196.005 70.08C196.178 69.6133 196.351 69.1533 196.525 68.7C196.698 68.2333 196.865 67.7667 197.025 67.3C197.091 67.0733 197.198 66.7667 197.345 66.38C197.505 65.9933 197.671 65.6933 197.845 65.48C197.631 65.4933 197.358 65.5067 197.025 65.52C196.691 65.52 196.451 65.5267 196.305 65.54V64H200.805V65.32C200.351 65.3333 199.958 65.5 199.625 65.82C199.291 66.14 198.978 66.6867 198.685 67.46C198.458 68.0467 198.231 68.64 198.005 69.24C197.791 69.8267 197.571 70.42 197.345 71.02C197.131 71.6067 196.911 72.2 196.685 72.8C196.458 73.3867 196.231 73.98 196.005 74.58C195.791 75.1667 195.571 75.7533 195.345 76.34C195.131 76.9267 194.911 77.52 194.685 78.12H193.045ZM199.342 78V76.62C199.715 76.62 200.015 76.5133 200.242 76.3C200.468 76.0867 200.655 75.8067 200.802 75.46C200.962 75.1133 201.115 74.74 201.262 74.34L205.162 63.64H206.562L210.822 74.54C210.902 74.74 211.008 75.0467 211.142 75.46C211.275 75.86 211.355 76.2133 211.382 76.52C211.608 76.4933 211.822 76.48 212.022 76.48C212.235 76.4667 212.408 76.46 212.542 76.46V78H207.162V76.68C207.535 76.68 207.788 76.6067 207.922 76.46C208.068 76.3 208.135 76.0867 208.122 75.82C208.108 75.5533 208.035 75.2533 207.902 74.92L207.502 73.82L203.162 73.9L202.842 74.84C202.775 75.0133 202.675 75.2733 202.542 75.62C202.422 75.9533 202.308 76.2333 202.202 76.46C202.415 76.4333 202.668 76.42 202.962 76.42C203.268 76.4067 203.488 76.4 203.622 76.4V78H199.342ZM203.662 72.4H207.002L206.082 69.9C205.908 69.42 205.755 68.94 205.622 68.46C205.488 67.9667 205.388 67.5333 205.322 67.16H205.302C205.248 67.3867 205.168 67.7267 205.062 68.18C204.955 68.6333 204.788 69.1733 204.562 69.8L203.662 72.4ZM219.361 65.32C219.068 65.3333 218.814 65.3733 218.601 65.44C218.388 65.5067 218.221 65.66 218.101 65.9C217.994 66.1267 217.941 66.5133 217.941 67.06V74.72C217.941 75.08 217.934 75.4267 217.921 75.76C217.908 76.0933 217.888 76.3467 217.861 76.52C218.074 76.4933 218.341 76.48 218.661 76.48C218.994 76.4667 219.228 76.46 219.361 76.46V78H213.621V76.68C213.928 76.6667 214.181 76.6267 214.381 76.56C214.594 76.4933 214.754 76.34 214.861 76.1C214.981 75.86 215.041 75.4733 215.041 74.94V67.28C215.041 66.92 215.048 66.5733 215.061 66.24C215.088 65.9067 215.108 65.6533 215.121 65.48C214.908 65.4933 214.641 65.5067 214.321 65.52C214.001 65.52 213.768 65.5267 213.621 65.54V64H219.361V65.32ZM221.355 78V76.68C221.662 76.6667 221.915 76.6267 222.115 76.56C222.329 76.4933 222.489 76.34 222.595 76.1C222.715 75.86 222.775 75.4733 222.775 74.94V67.28C222.775 66.92 222.782 66.5733 222.795 66.24C222.822 65.9067 222.842 65.6533 222.855 65.48C222.642 65.4933 222.375 65.5067 222.055 65.52C221.735 65.52 221.502 65.5267 221.355 65.54V64H227.095V65.32C226.802 65.3333 226.549 65.3733 226.335 65.44C226.122 65.5067 225.955 65.66 225.835 65.9C225.729 66.1267 225.675 66.5133 225.675 67.06V74.72C225.675 75.08 225.669 75.42 225.655 75.74C225.642 76.06 225.622 76.3067 225.595 76.48H228.275C229.062 76.48 229.675 76.2067 230.115 75.66C230.569 75.1133 230.795 74.2933 230.795 73.2H232.135L232.015 78H221.355ZM232.76 78V76.62C233.133 76.62 233.433 76.5133 233.66 76.3C233.886 76.0867 234.073 75.8067 234.22 75.46C234.38 75.1133 234.533 74.74 234.68 74.34L238.58 63.64H239.98L244.24 74.54C244.32 74.74 244.426 75.0467 244.56 75.46C244.693 75.86 244.773 76.2133 244.8 76.52C245.026 76.4933 245.24 76.48 245.44 76.48C245.653 76.4667 245.826 76.46 245.96 76.46V78H240.58V76.68C240.953 76.68 241.206 76.6067 241.34 76.46C241.486 76.3 241.553 76.0867 241.54 75.82C241.526 75.5533 241.453 75.2533 241.32 74.92L240.92 73.82L236.58 73.9L236.26 74.84C236.193 75.0133 236.093 75.2733 235.96 75.62C235.84 75.9533 235.726 76.2333 235.62 76.46C235.833 76.4333 236.086 76.42 236.38 76.42C236.686 76.4067 236.906 76.4 237.04 76.4V78H232.76ZM237.08 72.4H240.42L239.5 69.9C239.326 69.42 239.173 68.94 239.04 68.46C238.906 67.9667 238.806 67.5333 238.74 67.16H238.72C238.666 67.3867 238.586 67.7267 238.48 68.18C238.373 68.6333 238.206 69.1733 237.98 69.8L237.08 72.4ZM247.039 78V76.68C247.346 76.6667 247.599 76.6267 247.799 76.56C248.012 76.4933 248.172 76.34 248.279 76.1C248.399 75.86 248.459 75.4733 248.459 74.94V67.28C248.459 66.92 248.466 66.5733 248.479 66.24C248.506 65.9067 248.526 65.6533 248.539 65.48C248.326 65.4933 248.059 65.5067 247.739 65.52C247.419 65.52 247.186 65.5267 247.039 65.54V64C247.959 63.9867 248.879 63.98 249.799 63.98C250.732 63.98 251.659 63.9733 252.579 63.96C254.179 63.9467 255.446 64.2467 256.379 64.86C257.326 65.46 257.766 66.3733 257.699 67.6C257.672 67.9867 257.552 68.3667 257.339 68.74C257.126 69.1 256.806 69.4267 256.379 69.72C255.966 70.0133 255.446 70.2467 254.819 70.42V70.44C256.152 70.6533 257.132 71.1 257.759 71.78C258.386 72.4467 258.699 73.1933 258.699 74.02C258.699 74.8867 258.486 75.62 258.059 76.22C257.646 76.8067 257.072 77.2533 256.339 77.56C255.606 77.8533 254.772 78 253.839 78H247.039ZM251.279 76.58C251.519 76.58 251.746 76.58 251.959 76.58C252.172 76.58 252.386 76.58 252.599 76.58C252.812 76.5667 253.019 76.56 253.219 76.56C254.032 76.52 254.626 76.26 254.999 75.78C255.372 75.3 255.559 74.6933 255.559 73.96C255.559 73.3467 255.432 72.8667 255.179 72.52C254.926 72.16 254.599 71.9067 254.199 71.76C253.812 71.6133 253.406 71.54 252.979 71.54C252.646 71.54 252.359 71.54 252.119 71.54C251.879 71.54 251.626 71.5467 251.359 71.56V74.82C251.359 75.18 251.352 75.52 251.339 75.84C251.326 76.16 251.306 76.4067 251.279 76.58ZM251.359 70.14L252.399 70.12C252.959 70.1067 253.399 69.98 253.719 69.74C254.052 69.5 254.286 69.18 254.419 68.78C254.566 68.3667 254.639 67.92 254.639 67.44C254.639 66.9067 254.532 66.4933 254.319 66.2C254.106 65.8933 253.839 65.6733 253.519 65.54C253.199 65.4067 252.866 65.3467 252.519 65.36C252.306 65.36 252.112 65.3933 251.939 65.46C251.766 65.5267 251.626 65.68 251.519 65.92C251.412 66.1467 251.359 66.52 251.359 67.04V70.14ZM260.047 78V76.68C260.354 76.6667 260.607 76.6267 260.807 76.56C261.02 76.4933 261.18 76.34 261.287 76.1C261.407 75.86 261.467 75.4733 261.467 74.94V67.28C261.467 66.92 261.474 66.5733 261.487 66.24C261.514 65.9067 261.534 65.6533 261.547 65.48C261.334 65.4933 261.067 65.5067 260.747 65.52C260.427 65.52 260.194 65.5267 260.047 65.54V64H265.787V65.32C265.494 65.3333 265.24 65.3733 265.027 65.44C264.814 65.5067 264.647 65.66 264.527 65.9C264.42 66.1267 264.367 66.5133 264.367 67.06V74.72C264.367 75.08 264.36 75.42 264.347 75.74C264.334 76.06 264.314 76.3067 264.287 76.48H266.967C267.754 76.48 268.367 76.2067 268.807 75.66C269.26 75.1133 269.487 74.2933 269.487 73.2H270.827L270.707 78H260.047ZM278.917 73.18C278.917 72.62 278.831 72.2133 278.657 71.96C278.484 71.7067 278.244 71.5533 277.937 71.5C277.644 71.4333 277.317 71.4067 276.957 71.42L276.437 71.44V74.72C276.437 75.08 276.431 75.42 276.417 75.74C276.404 76.06 276.384 76.3067 276.357 76.48H279.037C279.437 76.48 279.824 76.3933 280.197 76.22C280.571 76.0333 280.877 75.7333 281.117 75.32C281.357 74.8933 281.477 74.32 281.477 73.6H282.777L282.677 78H272.117V76.68C272.424 76.6667 272.677 76.6267 272.877 76.56C273.091 76.4933 273.251 76.34 273.357 76.1C273.477 75.86 273.537 75.4733 273.537 74.94V67.28C273.537 66.92 273.544 66.5733 273.557 66.24C273.584 65.9067 273.604 65.6533 273.617 65.48C273.404 65.4933 273.137 65.5067 272.817 65.52C272.497 65.52 272.264 65.5267 272.117 65.54V64H282.117L282.237 67.88H280.917C280.917 67.1467 280.791 66.5933 280.537 66.22C280.284 65.8467 279.971 65.6 279.597 65.48C279.224 65.3467 278.857 65.2867 278.497 65.3L277.777 65.32C277.497 65.32 277.257 65.36 277.057 65.44C276.857 65.5067 276.704 65.6667 276.597 65.92C276.491 66.16 276.437 66.54 276.437 67.06V70.06H278.777L278.697 68.32H280.237V73.18H278.917Z" fill="black"/>
<defs>
<clipPath id="clip0_102_77">
<rect width="50" height="50" fill="white" transform="translate(150 95)"/>
</clipPath>
</defs>
</svg>
